#define image_width  12
#define image_height 12
static unsigned char image_bits[] = {
 0x9f,0xff,0x9f,0xff,0x9f,0xff,0x9f,0xff,0x9f,0xff,0x00,0xf0,
 0x00,0xf0,0x9f,0xff,0x9f,0xff,0x9f,0xff,0x9f,0xff,0x9f,0xff};
