#define image_width  8
#define image_height 8
static unsigned char image_bits[] = {
 0xc3,0xe7,0x7e,0x3c,0x3c,0x7e,0xe7,0xc3};
