#define image_width  8
#define image_height 8
static unsigned char image_bits[] = {
 0x0f,0x07,0x0f,0x1d,0xb8,0xf0,0xe0,0xf0};
