#define image_width  10
#define image_height 10
static unsigned char image_bits[] = {
 0xc0,0xff,0x80,0xff,0xc0,0xff,0xe0,0xfe,0x70,0xfc,0x38,0xfc,
 0x1d,0xfc,0x0f,0xfc,0x07,0xfc,0x0f,0xfc};

