#define image_width  8
#define image_height 8
static unsigned char image_bits[] = {
 0xff,0xff,0x03,0x03,0x03,0x03,0x03,0x03};
